<svg xmlns="http://www.w3.org/2000/svg" viewBox="0 0 800 600">
  <!-- Background -->
  <rect width="800" height="600" fill="#f8f9fa" />
  
  <!-- Title -->
  <text x="400" y="40" font-family="Arial" font-size="24" text-anchor="middle" font-weight="bold">coordinatorDidFinish Flow Diagram</text>
  
  <!-- Function Declaration Box -->
  <rect x="50" y="70" width="700" height="60" rx="10" fill="#e3f2fd" stroke="#2196f3" stroke-width="2" />
  <text x="400" y="105" font-family="Arial" font-size="16" text-anchor="middle">func coordinatorDidFinish(_ coordinator: Coordinator)</text>
  <text x="400" y="125" font-family="Arial" font-size="12" text-anchor="middle" fill="#444">Step 1: Function receives a coordinator that has finished its work</text>
  
  <!-- Array and Search Box -->
  <rect x="100" y="170" width="600" height="120" rx="10" fill="#e8f5e9" stroke="#4caf50" stroke-width="2" />
  <text x="400" y="190" font-family="Arial" font-size="16" text-anchor="middle">childCoordinators.firstIndex(where: { $0 === coordinator })</text>
  <text x="400" y="210" font-family="Arial" font-size="12" text-anchor="middle" fill="#444">Step 2: Search through childCoordinators array for the matching coordinator</text>
  
  <!-- Array Visual -->
  <rect x="150" y="220" width="500" height="50" rx="5" fill="#ffffff" stroke="#888" stroke-width="1" />
  <line x1="230" y1="220" x2="230" y2="270" stroke="#888" stroke-width="1" />
  <line x1="310" y1="220" x2="310" y2="270" stroke="#888" stroke-width="1" />
  <line x1="390" y1="220" x2="390" y2="270" stroke="#888" stroke-width="1" />
  <line x1="470" y1="220" x2="470" y2="270" stroke="#888" stroke-width="1" />
  <line x1="550" y1="220" x2="550" y2="270" stroke="#888" stroke-width="1" />
  
  <text x="190" y="250" font-family="Arial" font-size="14" text-anchor="middle">Coord 1</text>
  <text x="270" y="250" font-family="Arial" font-size="14" text-anchor="middle">Coord 2</text>
  <text x="350" y="250" font-family="Arial" font-size="14" text-anchor="middle">Coord 3</text>
  <text x="430" y="235" font-family="Arial" font-size="14" text-anchor="middle">Coord 4</text>
  <text x="430" y="255" font-family="Arial" font-size="14" text-anchor="middle">(Match!)</text>
  <text x="510" y="250" font-family="Arial" font-size="14" text-anchor="middle">Coord 5</text>
  <text x="590" y="250" font-family="Arial" font-size="14" text-anchor="middle">Coord 6</text>
  
  <!-- Arrow pointing to matching coordinator -->
  <path d="M 430,280 L 430,300 L 450,300" stroke="#ff5722" stroke-width="2" fill="none" />
  <text x="470" y="305" font-family="Arial" font-size="12" fill="#ff5722">$0 === coordinator (true)</text>
  
  <!-- Optional Binding Box -->
  <rect x="100" y="330" width="600" height="80" rx="10" fill="#fff3e0" stroke="#ff9800" stroke-width="2" />
  <text x="400" y="360" font-family="Arial" font-size="16" text-anchor="middle">if let index = ... (Optional Binding)</text>
  <text x="400" y="380" font-family="Arial" font-size="12" text-anchor="middle" fill="#444">Step 3: If a match is found, index = 3 (position of Coord 4)</text>
  
  <!-- Decision Diamond -->
  <polygon points="400,430 450,470 400,510 350,470" fill="#f3e5f5" stroke="#9c27b0" stroke-width="2" />
  <text x="400" y="475" font-family="Arial" font-size="14" text-anchor="middle">Match found?</text>
  
  <!-- Yes path -->
  <path d="M 450,470 L 550,470" stroke="#000" stroke-width="2" fill="none" marker-end="url(#arrow)" />
  <text x="500" y="460" font-family="Arial" font-size="14" text-anchor="middle">Yes</text>
  
  <!-- No path -->
  <path d="M 350,470 L 250,470" stroke="#000" stroke-width="2" fill="none" marker-end="url(#arrow)" />
  <text x="300" y="460" font-family="Arial" font-size="14" text-anchor="middle">No</text>
  
  <!-- Remove Action Box -->
  <rect x="550" y="440" width="200" height="60" rx="10" fill="#ffebee" stroke="#f44336" stroke-width="2" />
  <text x="650" y="465" font-family="Arial" font-size="16" text-anchor="middle">childCoordinators.remove(at: index)</text>
  <text x="650" y="485" font-family="Arial" font-size="12" text-anchor="middle" fill="#444">Step 4: Remove the coordinator at index 3</text>
  
  <!-- No Action Box -->
  <rect x="50" y="440" width="200" height="60" rx="10" fill="#e0e0e0" stroke="#9e9e9e" stroke-width="2" />
  <text x="150" y="475" font-family="Arial" font-size="16" text-anchor="middle">Do nothing</text>
  
  <!-- Final Array Visual -->
  <rect x="150" y="540" width="500" height="50" rx="5" fill="#ffffff" stroke="#888" stroke-width="1" />
  <line x1="230" y1="540" x2="230" y2="590" stroke="#888" stroke-width="1" />
  <line x1="310" y1="540" x2="310" y2="590" stroke="#888" stroke-width="1" />
  <line x1="390" y1="540" x2="390" y2="590" stroke="#888" stroke-width="1" />
  <line x1="470" y1="540" x2="470" y2="590" stroke="#888" stroke-width="1" />
  
  <text x="190" y="570" font-family="Arial" font-size="14" text-anchor="middle">Coord 1</text>
  <text x="270" y="570" font-family="Arial" font-size="14" text-anchor="middle">Coord 2</text>
  <text x="350" y="570" font-family="Arial" font-size="14" text-anchor="middle">Coord 3</text>
  <text x="430" y="570" font-family="Arial" font-size="14" text-anchor="middle">Coord 5</text>
  <text x="510" y="570" font-family="Arial" font-size="14" text-anchor="middle">Coord 6</text>
  
  <text x="400" y="520" font-family="Arial" font-size="16" text-anchor="middle" fill="#444">Result: Array after removal</text>
  
  <!-- Arrow markers definition -->
  <defs>
    <marker id="arrow" markerWidth="10" markerHeight="10" refX="9" refY="3" orient="auto" markerUnits="strokeWidth">
      <path d="M0,0 L0,6 L9,3 z" fill="#000" />
    </marker>
  </defs>
</svg>
